<?xml version="1.0" encoding="UTF-8" standalone="no"?>
<!DOCTYPE svg PUBLIC "-//W3C//DTD SVG 1.1//EN"
 "http://www.w3.org/Graphics/SVG/1.1/DTD/svg11.dtd">
<!-- Generated by graphviz version 2.43.0 (0)
 -->
<!-- Title: %3 Pages: 1 -->
<svg width="555pt" height="148pt"
 viewBox="0.00 0.00 555.00 148.00" xmlns="http://www.w3.org/2000/svg" xmlns:xlink="http://www.w3.org/1999/xlink">
<g id="graph0" class="graph" transform="scale(1 1) rotate(0) translate(4 144)">
<title>%3</title>
<polygon fill="white" stroke="transparent" points="-4,4 -4,-144 551,-144 551,4 -4,4"/>
<!-- q -->
<g id="node1" class="node">
<title>q</title>
<polygon fill="lightblue" stroke="black" points="400,-140 147,-140 147,-104 400,-104 400,-140"/>
<text text-anchor="middle" x="273.5" y="-118.3" font-family="Times,serif" font-size="14.00">Q2: Які основні принципи ООП?</text>
</g>
<!-- a -->
<g id="node2" class="node">
<title>a</title>
<polygon fill="lightyellow" stroke="black" points="547,-68 0,-68 0,0 547,0 547,-68"/>
<text text-anchor="middle" x="273.5" y="-52.8" font-family="Times,serif" font-size="14.00">Інкапсуляція, Наслідування, Поліморфізм, Абстракція.</text>
<text text-anchor="middle" x="273.5" y="-37.8" font-family="Times,serif" font-size="14.00">Приклад:</text>
<text text-anchor="middle" x="273.5" y="-22.8" font-family="Times,serif" font-size="14.00">class Animal { void sound() {} }</text>
<text text-anchor="middle" x="273.5" y="-7.8" font-family="Times,serif" font-size="14.00">class Dog extends Animal { void sound() { System.out.println(&quot;Bark&quot;); } }</text>
</g>
<!-- q&#45;&gt;a -->
<g id="edge1" class="edge">
<title>q&#45;&gt;a</title>
<path fill="none" stroke="black" d="M273.5,-103.6C273.5,-96.18 273.5,-87.16 273.5,-78.14"/>
<polygon fill="black" stroke="black" points="277,-78.03 273.5,-68.03 270,-78.03 277,-78.03"/>
</g>
</g>
</svg>
