<?xml version="1.0" encoding="UTF-8" standalone="no"?>
<!DOCTYPE svg PUBLIC "-//W3C//DTD SVG 1.1//EN"
 "http://www.w3.org/Graphics/SVG/1.1/DTD/svg11.dtd">
<!-- Generated by graphviz version 2.43.0 (0)
 -->
<!-- Title: %3 Pages: 1 -->
<svg width="429pt" height="178pt"
 viewBox="0.00 0.00 429.00 178.00" xmlns="http://www.w3.org/2000/svg" xmlns:xlink="http://www.w3.org/1999/xlink">
<g id="graph0" class="graph" transform="scale(1 1) rotate(0) translate(4 174)">
<title>%3</title>
<polygon fill="white" stroke="transparent" points="-4,4 -4,-174 425,-174 425,4 -4,4"/>
<!-- q -->
<g id="node1" class="node">
<title>q</title>
<polygon fill="lightblue" stroke="black" points="375,-170 46,-170 46,-134 375,-134 375,-170"/>
<text text-anchor="middle" x="210.5" y="-148.3" font-family="Times,serif" font-size="14.00">Q3: У чому різниця між `==` і `.equals()`?</text>
</g>
<!-- a -->
<g id="node2" class="node">
<title>a</title>
<polygon fill="lightyellow" stroke="black" points="421,-98 0,-98 0,0 421,0 421,-98"/>
<text text-anchor="middle" x="210.5" y="-82.8" font-family="Times,serif" font-size="14.00">`==` порівнює посилання, `.equals()` — вміст об&#39;єктів.</text>
<text text-anchor="middle" x="210.5" y="-67.8" font-family="Times,serif" font-size="14.00">Приклад:</text>
<text text-anchor="middle" x="210.5" y="-52.8" font-family="Times,serif" font-size="14.00">String a = &quot;hello&quot;;</text>
<text text-anchor="middle" x="210.5" y="-37.8" font-family="Times,serif" font-size="14.00">String b = new String(&quot;hello&quot;);</text>
<text text-anchor="middle" x="210.5" y="-22.8" font-family="Times,serif" font-size="14.00">a == b → false</text>
<text text-anchor="middle" x="210.5" y="-7.8" font-family="Times,serif" font-size="14.00">a.equals(b) → true</text>
</g>
<!-- q&#45;&gt;a -->
<g id="edge1" class="edge">
<title>q&#45;&gt;a</title>
<path fill="none" stroke="black" d="M210.5,-133.87C210.5,-126.59 210.5,-117.65 210.5,-108.34"/>
<polygon fill="black" stroke="black" points="214,-108.15 210.5,-98.15 207,-108.15 214,-108.15"/>
</g>
</g>
</svg>
