<?xml version="1.0" encoding="UTF-8" standalone="no"?>
<!DOCTYPE svg PUBLIC "-//W3C//DTD SVG 1.1//EN"
 "http://www.w3.org/Graphics/SVG/1.1/DTD/svg11.dtd">
<!-- Generated by graphviz version 2.43.0 (0)
 -->
<!-- Title: %3 Pages: 1 -->
<svg width="327pt" height="133pt"
 viewBox="0.00 0.00 327.00 133.00" xmlns="http://www.w3.org/2000/svg" xmlns:xlink="http://www.w3.org/1999/xlink">
<g id="graph0" class="graph" transform="scale(1 1) rotate(0) translate(4 129)">
<title>%3</title>
<polygon fill="white" stroke="transparent" points="-4,4 -4,-129 323,-129 323,4 -4,4"/>
<!-- q -->
<g id="node1" class="node">
<title>q</title>
<polygon fill="lightblue" stroke="black" points="316.5,-125 2.5,-125 2.5,-89 316.5,-89 316.5,-125"/>
<text text-anchor="middle" x="159.5" y="-103.3" font-family="Times,serif" font-size="14.00">Q4: Що таке `final`, `finally`, `finalize()`?</text>
</g>
<!-- a -->
<g id="node2" class="node">
<title>a</title>
<polygon fill="lightyellow" stroke="black" points="319,-53 0,-53 0,0 319,0 319,-53"/>
<text text-anchor="middle" x="159.5" y="-37.8" font-family="Times,serif" font-size="14.00">`final` — забороняє зміну.</text>
<text text-anchor="middle" x="159.5" y="-22.8" font-family="Times,serif" font-size="14.00">`finally` — виконується після `try/catch`.</text>
<text text-anchor="middle" x="159.5" y="-7.8" font-family="Times,serif" font-size="14.00">`finalize()` — метод перед збором сміття.</text>
</g>
<!-- q&#45;&gt;a -->
<g id="edge1" class="edge">
<title>q&#45;&gt;a</title>
<path fill="none" stroke="black" d="M159.5,-88.97C159.5,-81.45 159.5,-72.31 159.5,-63.4"/>
<polygon fill="black" stroke="black" points="163,-63.16 159.5,-53.16 156,-63.16 163,-63.16"/>
</g>
</g>
</svg>
