<?xml version="1.0" encoding="UTF-8" standalone="no"?>
<!DOCTYPE svg PUBLIC "-//W3C//DTD SVG 1.1//EN"
 "http://www.w3.org/Graphics/SVG/1.1/DTD/svg11.dtd">
<!-- Generated by graphviz version 2.43.0 (0)
 -->
<!-- Title: %3 Pages: 1 -->
<svg width="443pt" height="148pt"
 viewBox="0.00 0.00 443.00 148.00" xmlns="http://www.w3.org/2000/svg" xmlns:xlink="http://www.w3.org/1999/xlink">
<g id="graph0" class="graph" transform="scale(1 1) rotate(0) translate(4 144)">
<title>%3</title>
<polygon fill="white" stroke="transparent" points="-4,4 -4,-144 439,-144 439,4 -4,4"/>
<!-- q -->
<g id="node1" class="node">
<title>q</title>
<polygon fill="lightblue" stroke="black" points="323.5,-140 111.5,-140 111.5,-104 323.5,-104 323.5,-140"/>
<text text-anchor="middle" x="217.5" y="-118.3" font-family="Times,serif" font-size="14.00">Q5: Що таке конструктор?</text>
</g>
<!-- a -->
<g id="node2" class="node">
<title>a</title>
<polygon fill="lightyellow" stroke="black" points="435,-68 0,-68 0,0 435,0 435,-68"/>
<text text-anchor="middle" x="217.5" y="-52.8" font-family="Times,serif" font-size="14.00">Конструктор ініціалізує об&#39;єкт. Не має типу повернення.</text>
<text text-anchor="middle" x="217.5" y="-37.8" font-family="Times,serif" font-size="14.00">class Person {</text>
<text text-anchor="middle" x="217.5" y="-22.8" font-family="Times,serif" font-size="14.00"> &#160;Person() { System.out.println(&quot;Створено!&quot;); }</text>
<text text-anchor="middle" x="217.5" y="-7.8" font-family="Times,serif" font-size="14.00">}</text>
</g>
<!-- q&#45;&gt;a -->
<g id="edge1" class="edge">
<title>q&#45;&gt;a</title>
<path fill="none" stroke="black" d="M217.5,-103.6C217.5,-96.18 217.5,-87.16 217.5,-78.14"/>
<polygon fill="black" stroke="black" points="221,-78.03 217.5,-68.03 214,-78.03 221,-78.03"/>
</g>
</g>
</svg>
