<?xml version="1.0" encoding="UTF-8" standalone="no"?>
<!DOCTYPE svg PUBLIC "-//W3C//DTD SVG 1.1//EN"
 "http://www.w3.org/Graphics/SVG/1.1/DTD/svg11.dtd">
<!-- Generated by graphviz version 2.43.0 (0)
 -->
<!-- Title: %3 Pages: 1 -->
<svg width="463pt" height="133pt"
 viewBox="0.00 0.00 463.00 133.00" xmlns="http://www.w3.org/2000/svg" xmlns:xlink="http://www.w3.org/1999/xlink">
<g id="graph0" class="graph" transform="scale(1 1) rotate(0) translate(4 129)">
<title>%3</title>
<polygon fill="white" stroke="transparent" points="-4,4 -4,-129 459,-129 459,4 -4,4"/>
<!-- q -->
<g id="node1" class="node">
<title>q</title>
<polygon fill="lightblue" stroke="black" points="455,-125 0,-125 0,-89 455,-89 455,-125"/>
<text text-anchor="middle" x="227.5" y="-103.3" font-family="Times,serif" font-size="14.00">Q8: Різниця між `HashMap`, `TreeMap`, `LinkedHashMap`?</text>
</g>
<!-- a -->
<g id="node2" class="node">
<title>a</title>
<polygon fill="lightyellow" stroke="black" points="389,-53 66,-53 66,0 389,0 389,-53"/>
<text text-anchor="middle" x="227.5" y="-37.8" font-family="Times,serif" font-size="14.00">`HashMap` — без порядку.</text>
<text text-anchor="middle" x="227.5" y="-22.8" font-family="Times,serif" font-size="14.00">`TreeMap` — відсортовано по ключах.</text>
<text text-anchor="middle" x="227.5" y="-7.8" font-family="Times,serif" font-size="14.00">`LinkedHashMap` — порядок вставлення.</text>
</g>
<!-- q&#45;&gt;a -->
<g id="edge1" class="edge">
<title>q&#45;&gt;a</title>
<path fill="none" stroke="black" d="M227.5,-88.97C227.5,-81.45 227.5,-72.31 227.5,-63.4"/>
<polygon fill="black" stroke="black" points="231,-63.16 227.5,-53.16 224,-63.16 231,-63.16"/>
</g>
</g>
</svg>
