<?xml version="1.0" encoding="UTF-8" standalone="no"?>
<!DOCTYPE svg PUBLIC "-//W3C//DTD SVG 1.1//EN"
 "http://www.w3.org/Graphics/SVG/1.1/DTD/svg11.dtd">
<!-- Generated by graphviz version 2.43.0 (0)
 -->
<!-- Title: %3 Pages: 1 -->
<svg width="314pt" height="148pt"
 viewBox="0.00 0.00 314.00 148.00" xmlns="http://www.w3.org/2000/svg" xmlns:xlink="http://www.w3.org/1999/xlink">
<g id="graph0" class="graph" transform="scale(1 1) rotate(0) translate(4 144)">
<title>%3</title>
<polygon fill="white" stroke="transparent" points="-4,4 -4,-144 310,-144 310,4 -4,4"/>
<!-- q -->
<g id="node1" class="node">
<title>q</title>
<polygon fill="lightblue" stroke="black" points="296,-140 10,-140 10,-104 296,-104 296,-140"/>
<text text-anchor="middle" x="153" y="-118.3" font-family="Times,serif" font-size="14.00">Q9: Що таке `NullPointerException`?</text>
</g>
<!-- a -->
<g id="node2" class="node">
<title>a</title>
<polygon fill="lightyellow" stroke="black" points="306,-68 0,-68 0,0 306,0 306,-68"/>
<text text-anchor="middle" x="153" y="-52.8" font-family="Times,serif" font-size="14.00">Помилка при зверненні до null&#45;об&#39;єкта.</text>
<text text-anchor="middle" x="153" y="-37.8" font-family="Times,serif" font-size="14.00">Приклад:</text>
<text text-anchor="middle" x="153" y="-22.8" font-family="Times,serif" font-size="14.00">String s = null;</text>
<text text-anchor="middle" x="153" y="-7.8" font-family="Times,serif" font-size="14.00">s.length(); → NullPointerException</text>
</g>
<!-- q&#45;&gt;a -->
<g id="edge1" class="edge">
<title>q&#45;&gt;a</title>
<path fill="none" stroke="black" d="M153,-103.6C153,-96.18 153,-87.16 153,-78.14"/>
<polygon fill="black" stroke="black" points="156.5,-78.03 153,-68.03 149.5,-78.03 156.5,-78.03"/>
</g>
</g>
</svg>
