<?xml version="1.0" encoding="UTF-8" standalone="no"?>
<!DOCTYPE svg PUBLIC "-//W3C//DTD SVG 1.1//EN"
 "http://www.w3.org/Graphics/SVG/1.1/DTD/svg11.dtd">
<!-- Generated by graphviz version 2.43.0 (0)
 -->
<!-- Title: %3 Pages: 1 -->
<svg width="280pt" height="133pt"
 viewBox="0.00 0.00 280.00 133.00" xmlns="http://www.w3.org/2000/svg" xmlns:xlink="http://www.w3.org/1999/xlink">
<g id="graph0" class="graph" transform="scale(1 1) rotate(0) translate(4 129)">
<title>%3</title>
<polygon fill="white" stroke="transparent" points="-4,4 -4,-129 276,-129 276,4 -4,4"/>
<!-- q -->
<g id="node1" class="node">
<title>q</title>
<polygon fill="lightblue" stroke="black" points="272,-125 0,-125 0,-89 272,-89 272,-125"/>
<text text-anchor="middle" x="136" y="-103.3" font-family="Times,serif" font-size="14.00">Q10: Як працює `try&#45;catch&#45;finally`?</text>
</g>
<!-- a -->
<g id="node2" class="node">
<title>a</title>
<polygon fill="lightyellow" stroke="black" points="261.5,-53 10.5,-53 10.5,0 261.5,0 261.5,-53"/>
<text text-anchor="middle" x="136" y="-37.8" font-family="Times,serif" font-size="14.00">`try` — небезпечний код.</text>
<text text-anchor="middle" x="136" y="-22.8" font-family="Times,serif" font-size="14.00">`catch` — обробка помилок.</text>
<text text-anchor="middle" x="136" y="-7.8" font-family="Times,serif" font-size="14.00">`finally` — виконується завжди.</text>
</g>
<!-- q&#45;&gt;a -->
<g id="edge1" class="edge">
<title>q&#45;&gt;a</title>
<path fill="none" stroke="black" d="M136,-88.97C136,-81.45 136,-72.31 136,-63.4"/>
<polygon fill="black" stroke="black" points="139.5,-63.16 136,-53.16 132.5,-63.16 139.5,-63.16"/>
</g>
</g>
</svg>
