<?xml version="1.0" encoding="UTF-8" standalone="no"?>
<!DOCTYPE svg PUBLIC "-//W3C//DTD SVG 1.1//EN"
 "http://www.w3.org/Graphics/SVG/1.1/DTD/svg11.dtd">
<!-- Generated by graphviz version 2.43.0 (0)
 -->
<!-- Title: %3 Pages: 1 -->
<svg width="371pt" height="148pt"
 viewBox="0.00 0.00 371.00 148.00" xmlns="http://www.w3.org/2000/svg" xmlns:xlink="http://www.w3.org/1999/xlink">
<g id="graph0" class="graph" transform="scale(1 1) rotate(0) translate(4 144)">
<title>%3</title>
<polygon fill="white" stroke="transparent" points="-4,4 -4,-144 367,-144 367,4 -4,4"/>
<!-- q -->
<g id="node1" class="node">
<title>q</title>
<polygon fill="lightblue" stroke="black" points="363,-140 0,-140 0,-104 363,-104 363,-140"/>
<text text-anchor="middle" x="181.5" y="-118.3" font-family="Times,serif" font-size="14.00">Q15: Що таке `Collection`, `List`, `Set`, `Map`?</text>
</g>
<!-- a -->
<g id="node2" class="node">
<title>a</title>
<polygon fill="lightyellow" stroke="black" points="317.5,-68 45.5,-68 45.5,0 317.5,0 317.5,-68"/>
<text text-anchor="middle" x="181.5" y="-52.8" font-family="Times,serif" font-size="14.00">Collection — кореневий інтерфейс.</text>
<text text-anchor="middle" x="181.5" y="-37.8" font-family="Times,serif" font-size="14.00">List — впорядкований.</text>
<text text-anchor="middle" x="181.5" y="-22.8" font-family="Times,serif" font-size="14.00">Set — унікальні.</text>
<text text-anchor="middle" x="181.5" y="-7.8" font-family="Times,serif" font-size="14.00">Map — пари ключ&#45;значення.</text>
</g>
<!-- q&#45;&gt;a -->
<g id="edge1" class="edge">
<title>q&#45;&gt;a</title>
<path fill="none" stroke="black" d="M181.5,-103.6C181.5,-96.18 181.5,-87.16 181.5,-78.14"/>
<polygon fill="black" stroke="black" points="185,-78.03 181.5,-68.03 178,-78.03 185,-78.03"/>
</g>
</g>
</svg>
