<?xml version="1.0" encoding="UTF-8" standalone="no"?>
<!DOCTYPE svg PUBLIC "-//W3C//DTD SVG 1.1//EN"
 "http://www.w3.org/Graphics/SVG/1.1/DTD/svg11.dtd">
<!-- Generated by graphviz version 2.43.0 (0)
 -->
<!-- Title: %3 Pages: 1 -->
<svg width="393pt" height="148pt"
 viewBox="0.00 0.00 393.00 148.00" xmlns="http://www.w3.org/2000/svg" xmlns:xlink="http://www.w3.org/1999/xlink">
<g id="graph0" class="graph" transform="scale(1 1) rotate(0) translate(4 144)">
<title>%3</title>
<polygon fill="white" stroke="transparent" points="-4,4 -4,-144 389,-144 389,4 -4,4"/>
<!-- q -->
<g id="node1" class="node">
<title>q</title>
<polygon fill="lightblue" stroke="black" points="327,-140 58,-140 58,-104 327,-104 327,-140"/>
<text text-anchor="middle" x="192.5" y="-118.3" font-family="Times,serif" font-size="14.00">Q16: Як створити `Thread` у Java?</text>
</g>
<!-- a -->
<g id="node2" class="node">
<title>a</title>
<polygon fill="lightyellow" stroke="black" points="385,-68 0,-68 0,0 385,0 385,-68"/>
<text text-anchor="middle" x="192.5" y="-52.8" font-family="Times,serif" font-size="14.00">class MyRunnable implements Runnable {</text>
<text text-anchor="middle" x="192.5" y="-37.8" font-family="Times,serif" font-size="14.00"> &#160;public void run() { System.out.println(&quot;Потік!&quot;); }</text>
<text text-anchor="middle" x="192.5" y="-22.8" font-family="Times,serif" font-size="14.00">}</text>
<text text-anchor="middle" x="192.5" y="-7.8" font-family="Times,serif" font-size="14.00">new Thread(new MyRunnable()).start();</text>
</g>
<!-- q&#45;&gt;a -->
<g id="edge1" class="edge">
<title>q&#45;&gt;a</title>
<path fill="none" stroke="black" d="M192.5,-103.6C192.5,-96.18 192.5,-87.16 192.5,-78.14"/>
<polygon fill="black" stroke="black" points="196,-78.03 192.5,-68.03 189,-78.03 196,-78.03"/>
</g>
</g>
</svg>
